<svg viewBox="0 0 540 122" xmlns="http://www.w3.org/2000/svg"><path fill="#00749A" d="M313.19 48.227h-21.257v2.255c6.649 0 7.718 1.425 7.718 9.857V75.54c0 8.431-1.068 9.975-7.718 9.975-5.105-.712-8.55-3.444-13.3-8.669l-5.462-5.937c7.362-1.308 11.28-5.938 11.28-11.164 0-6.53-5.58-11.518-16.031-11.518h-20.9v2.255c6.649 0 7.718 1.425 7.718 9.857V75.54c0 8.431-1.069 9.975-7.718 9.975v2.256h23.631v-2.256c-6.649 0-7.718-1.544-7.718-9.975v-4.274h2.018l13.182 16.505h34.557c16.981 0 24.344-9.024 24.344-19.832 0-10.806-7.362-19.712-24.344-19.712zm-49.756 19.355V51.79h4.868c5.343 0 7.719 3.681 7.719 7.956 0 4.157-2.376 7.837-7.719 7.837h-4.868zm50.113 16.508h-.832c-4.274 0-4.868-1.068-4.868-6.531V51.79h5.7c12.35 0 14.605 9.024 14.605 16.031 0 7.243-2.256 16.269-14.605 16.269zM181.378 71.978l8.194-24.227c2.376-7.006 1.307-9.024-6.293-9.024v-2.376h22.325v2.376c-7.481 0-9.262 1.781-12.231 10.45L179.834 89.79h-1.543l-12.114-37.17-12.349 37.17h-1.544l-13.181-40.613c-2.85-8.669-4.75-10.45-11.638-10.45v-2.376h26.363v2.376c-7.007 0-8.908 1.662-6.413 9.024l7.956 24.227 11.994-35.627h2.257l11.756 35.627zm40.374 17.336c-13.062 0-23.75-9.618-23.75-21.376 0-11.637 10.689-21.257 23.75-21.257 13.063 0 23.75 9.62 23.75 21.257 0 11.758-10.687 21.376-23.75 21.376zm0-38.949c-10.924 0-14.725 9.855-14.725 17.574 0 7.839 3.801 17.576 14.725 17.576 11.045 0 14.845-9.737 14.845-17.576 0-7.719-3.8-17.574-14.845-17.574z"/><path fill="#464342" d="M366.864 85.396v2.375H339.67v-2.375c7.957 0 9.382-2.018 9.382-13.895V52.502c0-11.877-1.425-13.776-9.382-13.776V36.35h24.581c12.231 0 19.002 6.294 19.002 14.727 0 8.194-6.771 14.606-19.002 14.606h-6.769V71.5c0 11.878 1.425 13.896 9.382 13.896zm-2.613-44.771h-6.769v20.664h6.769c6.651 0 9.738-4.631 9.738-10.212 0-5.7-3.087-10.452-9.738-10.452zm100.582 35.984l-.594 2.137c-1.068 3.919-2.376 5.344-10.807 5.344h-1.663c-6.174 0-7.243-1.425-7.243-9.856v-5.462c9.263 0 9.976.83 9.976 7.006h2.256V58.083h-2.256c0 6.175-.713 7.006-9.976 7.006V51.79h6.53c8.433 0 9.738 1.425 10.807 5.344l.595 2.255h1.899l-.83-11.162h-34.914v2.255c6.649 0 7.719 1.425 7.719 9.857V75.54c0 7.713-.908 9.656-6.151 9.933-4.983-.761-8.404-3.479-13.085-8.627l-5.463-5.937c7.363-1.308 11.282-5.938 11.282-11.164 0-6.53-5.581-11.518-16.031-11.518h-20.9v2.255c6.649 0 7.718 1.425 7.718 9.857V75.54c0 8.431-1.068 9.975-7.718 9.975v2.256h23.632v-2.256c-6.649 0-7.719-1.544-7.719-9.975v-4.274h2.019l13.181 16.505h48.806l.713-11.161h-1.783zm-62.937-9.027V51.79h4.868c5.344 0 7.72 3.681 7.72 7.956 0 4.157-2.376 7.837-7.72 7.837h-4.868zm87.043 21.732c-4.75 0-8.907-2.493-10.688-4.038-.594.595-1.662 2.376-1.899 4.038h-2.257V72.928h2.375c.951 7.837 6.412 12.468 13.419 12.468 3.8 0 6.888-2.137 6.888-5.699 0-3.087-2.731-5.463-7.6-7.719l-6.769-3.206c-4.751-2.258-8.313-6.177-8.313-11.401 0-5.7 5.344-10.568 12.707-10.568 3.919 0 7.243 1.425 9.263 3.087.593-.475 1.187-1.782 1.544-3.208h2.256v14.014h-2.494c-.832-5.582-3.919-10.213-10.212-10.213-3.325 0-6.414 1.9-6.414 4.87 0 3.087 2.494 4.749 8.195 7.362l6.53 3.206c5.701 2.731 7.956 7.127 7.956 10.689 0 7.48-6.531 12.704-14.487 12.704zm36.575 0c-4.751 0-8.908-2.493-10.688-4.038-.594.595-1.662 2.376-1.899 4.038h-2.257V72.928h2.375c.95 7.837 6.412 12.468 13.419 12.468 3.8 0 6.888-2.137 6.888-5.699 0-3.087-2.731-5.463-7.601-7.719l-6.769-3.206c-4.75-2.258-8.313-6.177-8.313-11.401 0-5.7 5.344-10.568 12.707-10.568 3.919 0 7.243 1.425 9.263 3.087.593-.475 1.187-1.782 1.542-3.208h2.257v14.014h-2.493c-.832-5.582-3.919-10.213-10.212-10.213-3.325 0-6.414 1.9-6.414 4.87 0 3.087 2.494 4.749 8.195 7.362l6.53 3.206C537.745 68.652 540 73.048 540 76.61c0 7.48-6.531 12.704-14.486 12.704z"/><g fill="#464342"><path d="M8.67 60.997c0 20.712 12.038 38.612 29.492 47.094l-24.961-68.39a52.129 52.129 0 0 0-4.53 21.296zm87.654-2.641c0-6.467-2.323-10.946-4.315-14.432-2.653-4.31-5.14-7.96-5.14-12.27 0-4.811 3.649-9.289 8.788-9.289.232 0 .452.03.678.042-9.31-8.529-21.713-13.736-35.336-13.736-18.282 0-34.365 9.379-43.722 23.586 1.228.037 2.385.062 3.368.062 5.473 0 13.946-.664 13.946-.664 2.82-.166 3.153 3.977.335 4.31 0 0-2.835.334-5.989.5l19.056 56.68L59.444 58.8l-8.153-22.338a95.346 95.346 0 0 1-5.487-.498c-2.82-.166-2.49-4.477.33-4.31 0 0 8.642.663 13.784.663 5.473 0 13.946-.664 13.946-.664 2.823-.166 3.154 3.977.335 4.31 0 0-2.84.334-5.989.5l18.91 56.25 5.22-17.441c2.262-7.238 3.984-12.436 3.984-16.916z"/><path d="M61.917 65.574l-15.7 45.622a52.326 52.326 0 0 0 14.782 2.131 52.273 52.273 0 0 0 17.376-2.966 4.595 4.595 0 0 1-.372-.72L61.917 65.573zm44.997-29.683a40.15 40.15 0 0 1 .353 5.38c0 5.31-.992 11.28-3.98 18.744l-15.983 46.213c15.557-9.072 26.02-25.926 26.02-45.23.001-9.098-2.322-17.653-6.41-25.107z"/><path d="M60.999 0C27.365 0 0 27.363 0 60.997c0 33.637 27.365 60.999 60.999 60.999 33.632 0 61.001-27.362 61.001-61C121.999 27.364 94.631 0 60.999 0zm0 119.2c-32.092 0-58.202-26.11-58.202-58.203 0-32.092 26.11-58.2 58.202-58.2 32.09 0 58.198 26.108 58.198 58.2C119.197 93.09 93.09 119.2 61 119.2z"/></g></svg>