<svg xmlns="http://www.w3.org/2000/svg" viewBox="0 0 1232 604.377"><g fill="#3b3737" data-name="Group 15"><path d="M0 0h604.377v46.491H0z" data-name="Rectangle 1"/><path d="M0 69.735h604.377v46.491H0z" data-name="Rectangle 2"/><path d="M0 139.471h604.377v46.491H0z" data-name="Rectangle 3"/><path d="M0 209.207h302.189v46.49H0z" data-name="Rectangle 4"/><path d="M0 278.943h302.189v46.491H0z" data-name="Rectangle 5"/><path d="M0 348.679h302.189v46.491H0z" data-name="Rectangle 6"/><path d="M0 418.415h604.377v46.491H0z" data-name="Rectangle 7"/><path d="M0 488.151h604.377v46.491H0z" data-name="Rectangle 8"/><path d="M0 557.886h604.377v46.491H0z" data-name="Rectangle 9"/><path d="M627.623 0H1232v46.491H627.623z" data-name="Rectangle 10"/><path d="M627.623 69.735H1232v46.491H627.623z" data-name="Rectangle 11"/><path d="M627.623 139.471H1232v46.491H627.623z" data-name="Rectangle 12"/><path d="M627.623 209.207h302.189v46.49H627.623z" data-name="Rectangle 13"/><path d="M627.623 278.943h302.189v46.491H627.623z" data-name="Rectangle 14"/><path d="M627.623 348.679h302.189v46.491H627.623z" data-name="Rectangle 15"/><path d="M627.623 418.415H1232v46.491H627.623z" data-name="Rectangle 16"/><path d="M627.623 488.151H1232v46.491H627.623z" data-name="Rectangle 17"/><path d="M627.623 557.886H1232v46.491H627.623z" data-name="Rectangle 18"/></g></svg>